<svg width="22" height="22" viewBox="0 0 22 22" fill="none" xmlns="http://www.w3.org/2000/svg">
<g id="1">
<path id="Vector" d="M17.875 9.50675V17.875C17.875 18.422 17.6577 18.9466 17.2709 19.3334C16.8841 19.7202 16.3595 19.9375 15.8125 19.9375H6.1875C5.64049 19.9375 5.11589 19.7202 4.72909 19.3334C4.3423 18.9466 4.125 18.422 4.125 17.875V4.125C4.125 3.57799 4.3423 3.05339 4.72909 2.66659C5.11589 2.2798 5.64049 2.0625 6.1875 2.0625H10.4307C10.7953 2.06282 11.1448 2.2079 11.4024 2.46583L17.4726 8.53417C17.6002 8.66191 17.7015 8.81355 17.7705 8.98043C17.8396 9.14731 17.8751 9.32615 17.875 9.50675Z" stroke="white" stroke-width="0.916667" stroke-linecap="round" stroke-linejoin="round"/>
<path id="Vector_2" d="M11 2.40625V7.5625C11 7.92717 11.1449 8.27691 11.4027 8.53477C11.6606 8.79263 12.0103 8.9375 12.375 8.9375H17.5313" stroke="white" stroke-width="0.916667" stroke-linecap="round" stroke-linejoin="round"/>
</g>
</svg>
