<svg width="11" height="11" viewBox="0 0 11 11" fill="none" xmlns="http://www.w3.org/2000/svg">
<path d="M5.5 8.3105L2.72014 5.52986L3.27564 4.96493L5.10714 6.79643V0H5.89286V6.79643L7.72357 4.96571L8.27986 5.52986L5.5 8.3105ZM1.26893 11C0.9075 11 0.605786 10.879 0.363786 10.637C0.121262 10.3945 0 10.0925 0 9.73107V7.82729H0.785714V9.73107C0.785714 9.85155 0.836 9.96233 0.936571 10.0634C1.03767 10.164 1.14845 10.2143 1.26893 10.2143H9.73107C9.85155 10.2143 9.96233 10.164 10.0634 10.0634C10.164 9.96233 10.2143 9.85155 10.2143 9.73107V7.82729H11V9.73107C11 10.0925 10.879 10.3942 10.637 10.6362C10.3945 10.8787 10.0925 11 9.73107 11H1.26893Z" fill="black"/>
</svg>
