<svg width="28" height="18" viewBox="0 0 28 18" fill="none" xmlns="http://www.w3.org/2000/svg">
<path d="M27.9385 8.71962C27.8981 8.62962 26.911 6.50077 24.7066 4.35692C22.6611 2.37 19.1468 0 14 0C8.85316 0 5.33888 2.37 3.29343 4.35692C1.08899 6.50077 0.101862 8.62615 0.0615225 8.71962C0.0209604 8.80823 0 8.90415 0 9.00115C0 9.09816 0.0209604 9.19407 0.0615225 9.28269C0.101862 9.37154 1.08899 11.5004 3.29343 13.6442C5.33888 15.6312 8.85316 18 14 18C19.1468 18 22.6611 15.6312 24.7066 13.6442C26.911 11.5004 27.8981 9.375 27.9385 9.28269C27.979 9.19407 28 9.09816 28 9.00115C28 8.90415 27.979 8.80823 27.9385 8.71962ZM14 16.6154C10.2769 16.6154 7.02602 15.2977 4.33632 12.7004C3.2088 11.6106 2.25468 10.3635 1.50544 9C2.25447 7.63676 3.20862 6.38994 4.33632 5.30077C7.02602 2.70231 10.2769 1.38462 14 1.38462C17.7231 1.38462 20.974 2.70231 23.6637 5.30077C24.7914 6.38994 25.7455 7.63676 26.4946 9C25.7388 10.4088 21.9493 16.6154 14 16.6154ZM14 3.69231C12.9206 3.69231 11.8654 4.0036 10.9679 4.58682C10.0704 5.17003 9.37083 5.99898 8.95775 6.96883C8.54467 7.93869 8.43659 9.00589 8.64717 10.0355C8.85776 11.0651 9.37756 12.0108 10.1408 12.7531C10.9041 13.4954 11.8766 14.0009 12.9353 14.2057C13.9939 14.4105 15.0913 14.3054 16.0886 13.9037C17.0858 13.5019 17.9382 12.8216 18.5379 11.9488C19.1376 11.076 19.4577 10.0498 19.4577 9C19.4558 7.59288 18.8802 6.24391 17.8571 5.24892C16.834 4.25393 15.4469 3.69414 14 3.69231ZM14 12.9231C13.2022 12.9231 12.4222 12.693 11.7589 12.2619C11.0955 11.8308 10.5784 11.2181 10.2731 10.5013C9.9678 9.78445 9.88791 8.99565 10.0436 8.23465C10.1992 7.47364 10.5834 6.77462 11.1476 6.22597C11.7117 5.67731 12.4305 5.30368 13.213 5.1523C13.9955 5.00093 14.8066 5.07862 15.5437 5.37555C16.2808 5.67248 16.9108 6.17531 17.3541 6.82046C17.7974 7.4656 18.0339 8.22409 18.0339 9C18.0339 10.0405 17.6089 11.0383 16.8524 11.774C16.0959 12.5098 15.0699 12.9231 14 12.9231Z" fill="white"/>
</svg>
