<svg width="260" height="114" viewBox="0 0 260 114" fill="none" xmlns="http://www.w3.org/2000/svg">
<path d="M0.154067 1.94059C-0.282492 1.18783 0.260645 0.244973 1.13084 0.244973H16.4904C16.893 0.244973 17.2651 0.45936 17.4671 0.807648L69.8503 91.1325L69.8569 91.1438C75.5856 100.914 90.4302 100.886 96.1199 91.0959L108.126 70.4373C108.328 70.0895 108.7 69.8755 109.102 69.8755H124.469C125.34 69.8755 125.883 70.8193 125.446 71.572L109.56 98.9067C97.8841 118.998 68.1697 119.038 56.4338 98.984L56.4184 98.9576L0.154067 1.94059Z" fill="#FFA800"/>
<path d="M0.154067 1.94059C-0.282492 1.18783 0.260645 0.244973 1.13084 0.244973H16.4904C16.893 0.244973 17.2651 0.45936 17.4671 0.807648L69.8503 91.1325L69.8569 91.1438C75.5856 100.914 90.4302 100.886 96.1199 91.0959L108.126 70.4373C108.328 70.0895 108.7 69.8755 109.102 69.8755H124.469C125.34 69.8755 125.883 70.8193 125.446 71.572L109.56 98.9067C97.8841 118.998 68.1697 119.038 56.4338 98.984L56.4184 98.9576L0.154067 1.94059Z" fill="url(#paint0_linear_1005_4120)"/>
<path d="M0.154067 1.94059C-0.282492 1.18783 0.260645 0.244973 1.13084 0.244973H16.4904C16.893 0.244973 17.2651 0.45936 17.4671 0.807648L69.8503 91.1325L69.8569 91.1438C75.5856 100.914 90.4302 100.886 96.1199 91.0959L108.126 70.4373C108.328 70.0895 108.7 69.8755 109.102 69.8755H124.469C125.34 69.8755 125.883 70.8193 125.446 71.572L109.56 98.9067C97.8841 118.998 68.1697 119.038 56.4338 98.984L56.4184 98.9576L0.154067 1.94059Z" fill="url(#paint1_linear_1005_4120)"/>
<path d="M0.154067 1.94059C-0.282492 1.18783 0.260645 0.244973 1.13084 0.244973H16.4904C16.893 0.244973 17.2651 0.45936 17.4671 0.807648L69.8503 91.1325L69.8569 91.1438C75.5856 100.914 90.4302 100.886 96.1199 91.0959L108.126 70.4373C108.328 70.0895 108.7 69.8755 109.102 69.8755H124.469C125.34 69.8755 125.883 70.8193 125.446 71.572L109.56 98.9067C97.8841 118.998 68.1697 119.038 56.4338 98.984L56.4184 98.9576L0.154067 1.94059Z" fill="url(#paint2_linear_1005_4120)"/>
<path d="M0.154067 1.94059C-0.282492 1.18783 0.260645 0.244973 1.13084 0.244973H16.4904C16.893 0.244973 17.2651 0.45936 17.4671 0.807648L69.8503 91.1325L69.8569 91.1438C75.5856 100.914 90.4302 100.886 96.1199 91.0959L108.126 70.4373C108.328 70.0895 108.7 69.8755 109.102 69.8755H124.469C125.34 69.8755 125.883 70.8193 125.446 71.572L109.56 98.9067C97.8841 118.998 68.1697 119.038 56.4338 98.984L56.4184 98.9576L0.154067 1.94059Z" fill="url(#paint3_linear_1005_4120)"/>
<path d="M0.154067 1.94059C-0.282492 1.18783 0.260645 0.244973 1.13084 0.244973H16.4904C16.893 0.244973 17.2651 0.45936 17.4671 0.807648L69.8503 91.1325L69.8569 91.1438C75.5856 100.914 90.4302 100.886 96.1199 91.0959L108.126 70.4373C108.328 70.0895 108.7 69.8755 109.102 69.8755H124.469C125.34 69.8755 125.883 70.8193 125.446 71.572L109.56 98.9067C97.8841 118.998 68.1697 119.038 56.4338 98.984L56.4184 98.9576L0.154067 1.94059Z" fill="url(#paint4_linear_1005_4120)"/>
<path d="M93.217 45.4107C93.624 45.4107 93.9995 45.1917 94.1999 44.8374L106.281 23.4751C111.918 13.5065 126.437 13.4747 132.122 23.4078L173.993 98.6202L174.03 98.6858C185.676 119.136 215.343 119.093 226.928 98.6076L254.579 49.7132C259.015 41.8677 262.337 28.4855 254.835 15.3115C243.189 -5.13843 213.522 -5.09523 201.937 15.3897L185.913 43.7258C185.487 44.4785 186.031 45.4107 186.895 45.4107H202.16C202.567 45.4107 202.942 45.1917 203.143 44.8374L215.468 23.0419C221.111 13.0635 235.653 13.0415 241.326 23.0041C245.3 29.9815 243.723 37.3301 241.047 42.061L213.396 90.9554C207.759 100.924 193.24 100.956 187.555 91.0223L145.684 15.8103L145.647 15.7447C134.001 -4.70524 104.334 -4.66204 92.7495 15.8229L76.9698 43.7258C76.5442 44.4785 77.088 45.4107 77.9527 45.4107H93.217Z" fill="#FFA800"/>
<path d="M93.217 45.4107C93.624 45.4107 93.9995 45.1917 94.1999 44.8374L106.281 23.4751C111.918 13.5065 126.437 13.4747 132.122 23.4078L173.993 98.6202L174.03 98.6858C185.676 119.136 215.343 119.093 226.928 98.6076L254.579 49.7132C259.015 41.8677 262.337 28.4855 254.835 15.3115C243.189 -5.13843 213.522 -5.09523 201.937 15.3897L185.913 43.7258C185.487 44.4785 186.031 45.4107 186.895 45.4107H202.16C202.567 45.4107 202.942 45.1917 203.143 44.8374L215.468 23.0419C221.111 13.0635 235.653 13.0415 241.326 23.0041C245.3 29.9815 243.723 37.3301 241.047 42.061L213.396 90.9554C207.759 100.924 193.24 100.956 187.555 91.0223L145.684 15.8103L145.647 15.7447C134.001 -4.70524 104.334 -4.66204 92.7495 15.8229L76.9698 43.7258C76.5442 44.4785 77.088 45.4107 77.9527 45.4107H93.217Z" fill="url(#paint5_linear_1005_4120)"/>
<path d="M93.217 45.4107C93.624 45.4107 93.9995 45.1917 94.1999 44.8374L106.281 23.4751C111.918 13.5065 126.437 13.4747 132.122 23.4078L173.993 98.6202L174.03 98.6858C185.676 119.136 215.343 119.093 226.928 98.6076L254.579 49.7132C259.015 41.8677 262.337 28.4855 254.835 15.3115C243.189 -5.13843 213.522 -5.09523 201.937 15.3897L185.913 43.7258C185.487 44.4785 186.031 45.4107 186.895 45.4107H202.16C202.567 45.4107 202.942 45.1917 203.143 44.8374L215.468 23.0419C221.111 13.0635 235.653 13.0415 241.326 23.0041C245.3 29.9815 243.723 37.3301 241.047 42.061L213.396 90.9554C207.759 100.924 193.24 100.956 187.555 91.0223L145.684 15.8103L145.647 15.7447C134.001 -4.70524 104.334 -4.66204 92.7495 15.8229L76.9698 43.7258C76.5442 44.4785 77.088 45.4107 77.9527 45.4107H93.217Z" fill="url(#paint6_linear_1005_4120)"/>
<path d="M93.217 45.4107C93.624 45.4107 93.9995 45.1917 94.1999 44.8374L106.281 23.4751C111.918 13.5065 126.437 13.4747 132.122 23.4078L173.993 98.6202L174.03 98.6858C185.676 119.136 215.343 119.093 226.928 98.6076L254.579 49.7132C259.015 41.8677 262.337 28.4855 254.835 15.3115C243.189 -5.13843 213.522 -5.09523 201.937 15.3897L185.913 43.7258C185.487 44.4785 186.031 45.4107 186.895 45.4107H202.16C202.567 45.4107 202.942 45.1917 203.143 44.8374L215.468 23.0419C221.111 13.0635 235.653 13.0415 241.326 23.0041C245.3 29.9815 243.723 37.3301 241.047 42.061L213.396 90.9554C207.759 100.924 193.24 100.956 187.555 91.0223L145.684 15.8103L145.647 15.7447C134.001 -4.70524 104.334 -4.66204 92.7495 15.8229L76.9698 43.7258C76.5442 44.4785 77.088 45.4107 77.9527 45.4107H93.217Z" fill="url(#paint7_linear_1005_4120)"/>
<path d="M93.217 45.4107C93.624 45.4107 93.9995 45.1917 94.1999 44.8374L106.281 23.4751C111.918 13.5065 126.437 13.4747 132.122 23.4078L173.993 98.6202L174.03 98.6858C185.676 119.136 215.343 119.093 226.928 98.6076L254.579 49.7132C259.015 41.8677 262.337 28.4855 254.835 15.3115C243.189 -5.13843 213.522 -5.09523 201.937 15.3897L185.913 43.7258C185.487 44.4785 186.031 45.4107 186.895 45.4107H202.16C202.567 45.4107 202.942 45.1917 203.143 44.8374L215.468 23.0419C221.111 13.0635 235.653 13.0415 241.326 23.0041C245.3 29.9815 243.723 37.3301 241.047 42.061L213.396 90.9554C207.759 100.924 193.24 100.956 187.555 91.0223L145.684 15.8103L145.647 15.7447C134.001 -4.70524 104.334 -4.66204 92.7495 15.8229L76.9698 43.7258C76.5442 44.4785 77.088 45.4107 77.9527 45.4107H93.217Z" fill="url(#paint8_linear_1005_4120)"/>
<path d="M93.217 45.4107C93.624 45.4107 93.9995 45.1917 94.1999 44.8374L106.281 23.4751C111.918 13.5065 126.437 13.4747 132.122 23.4078L173.993 98.6202L174.03 98.6858C185.676 119.136 215.343 119.093 226.928 98.6076L254.579 49.7132C259.015 41.8677 262.337 28.4855 254.835 15.3115C243.189 -5.13843 213.522 -5.09523 201.937 15.3897L185.913 43.7258C185.487 44.4785 186.031 45.4107 186.895 45.4107H202.16C202.567 45.4107 202.942 45.1917 203.143 44.8374L215.468 23.0419C221.111 13.0635 235.653 13.0415 241.326 23.0041C245.3 29.9815 243.723 37.3301 241.047 42.061L213.396 90.9554C207.759 100.924 193.24 100.956 187.555 91.0223L145.684 15.8103L145.647 15.7447C134.001 -4.70524 104.334 -4.66204 92.7495 15.8229L76.9698 43.7258C76.5442 44.4785 77.088 45.4107 77.9527 45.4107H93.217Z" fill="url(#paint9_linear_1005_4120)"/>
<defs>
<linearGradient id="paint0_linear_1005_4120" x1="169.188" y1="106.226" x2="6.24782" y2="-55.8138" gradientUnits="userSpaceOnUse">
<stop stop-color="#FFC75B"/>
<stop offset="1" stop-color="#FFE8AB"/>
</linearGradient>
<linearGradient id="paint1_linear_1005_4120" x1="44.9575" y1="29.8716" x2="206.098" y2="70.2175" gradientUnits="userSpaceOnUse">
<stop stop-color="#FFDA7B"/>
<stop offset="1" stop-color="#FFAC01"/>
</linearGradient>
<linearGradient id="paint2_linear_1005_4120" x1="282.617" y1="14.4036" x2="53.9598" y2="14.4036" gradientUnits="userSpaceOnUse">
<stop stop-color="#FF9900"/>
<stop offset="1" stop-color="#FFB800"/>
</linearGradient>
<linearGradient id="paint3_linear_1005_4120" x1="58.4609" y1="48.612" x2="241.206" y2="92.723" gradientUnits="userSpaceOnUse">
<stop stop-color="#FFBA07"/>
<stop offset="1" stop-color="#FF5C01"/>
</linearGradient>
<linearGradient id="paint4_linear_1005_4120" x1="243.007" y1="64.8161" x2="53.0595" y2="2.57519e-05" gradientUnits="userSpaceOnUse">
<stop stop-color="#FF4D01"/>
<stop offset="1" stop-color="#FF8A01"/>
</linearGradient>
<linearGradient id="paint5_linear_1005_4120" x1="169.188" y1="106.226" x2="6.24782" y2="-55.8138" gradientUnits="userSpaceOnUse">
<stop stop-color="#FFC75B"/>
<stop offset="1" stop-color="#FFE8AB"/>
</linearGradient>
<linearGradient id="paint6_linear_1005_4120" x1="44.9575" y1="29.8716" x2="206.098" y2="70.2175" gradientUnits="userSpaceOnUse">
<stop stop-color="#FFDA7B"/>
<stop offset="1" stop-color="#FFAC01"/>
</linearGradient>
<linearGradient id="paint7_linear_1005_4120" x1="282.617" y1="14.4036" x2="53.9598" y2="14.4036" gradientUnits="userSpaceOnUse">
<stop stop-color="#FF9900"/>
<stop offset="1" stop-color="#FFB800"/>
</linearGradient>
<linearGradient id="paint8_linear_1005_4120" x1="58.4609" y1="48.612" x2="241.206" y2="92.723" gradientUnits="userSpaceOnUse">
<stop stop-color="#FFBA07"/>
<stop offset="1" stop-color="#FF5C01"/>
</linearGradient>
<linearGradient id="paint9_linear_1005_4120" x1="243.007" y1="64.8161" x2="53.0595" y2="2.57519e-05" gradientUnits="userSpaceOnUse">
<stop stop-color="#FF4D01"/>
<stop offset="1" stop-color="#FF8A01"/>
</linearGradient>
</defs>
</svg>
