<svg width="1291" height="190" viewBox="0 0 1291 190" fill="none" xmlns="http://www.w3.org/2000/svg">
<path fill-rule="evenodd" clip-rule="evenodd" d="M836.287 18.2969V143.576H857.328V129.237C860.896 133.897 865.694 137.721 871.724 140.708C877.876 143.696 884.889 145.189 892.764 145.189C901.623 145.189 909.682 143.038 916.942 138.737C924.325 134.315 930.108 128.221 934.291 120.454C938.475 112.568 940.566 103.665 940.566 93.7473C940.566 83.8293 938.475 75.0465 934.291 67.3989C930.108 59.6318 924.386 53.6572 917.127 49.4749C909.867 45.2926 901.746 43.2015 892.764 43.2015C885.135 43.2015 878.183 44.7549 871.908 47.8617C865.756 50.8491 860.896 54.7326 857.328 59.5123V18.2969H836.287ZM919.157 93.7473C919.157 86.9361 917.68 81.0809 914.727 76.1817C911.897 71.163 908.083 67.3989 903.284 64.8896C898.609 62.2607 893.564 60.9463 888.15 60.9463C882.859 60.9463 877.814 62.2607 873.016 64.8896C868.34 67.5184 864.526 71.3422 861.573 76.3609C858.743 81.3797 857.328 87.2946 857.328 94.1057C857.328 100.917 858.743 106.892 861.573 112.03C864.526 117.049 868.34 120.872 873.016 123.501C877.814 126.13 882.859 127.444 888.15 127.444C893.564 127.444 898.609 126.13 903.284 123.501C908.083 120.753 911.897 116.81 914.727 111.671C917.68 106.533 919.157 100.558 919.157 93.7473Z" fill="white"/>
<path d="M1203.81 18.2969V143.576H1224.85V101.096L1262.51 143.576H1290.93L1244.05 94.285L1290.93 44.8146H1261.77L1224.85 88.0116V18.2969H1203.81Z" fill="white"/>
<path d="M596.97 19.004L558.949 143.576H535.141L508.194 49.2956L479.587 143.576L455.962 143.755L419.603 19.004H441.935L468.513 120.454L497.305 19.004H520.929L547.691 119.916L574.453 19.004H596.97Z" fill="white"/>
<path fill-rule="evenodd" clip-rule="evenodd" d="M599.269 93.7473C599.269 83.8293 601.361 75.0465 605.544 67.3989C609.851 59.7513 615.634 53.8364 622.893 49.6541C630.276 45.3523 638.397 43.2015 647.256 43.2015C655.254 43.2015 662.206 44.7549 668.112 47.8617C674.141 50.8491 678.94 54.6131 682.508 59.1539V44.8146H703.733V143.576H682.508V128.878C678.94 133.539 674.079 137.422 667.927 140.529C661.775 143.636 654.762 145.189 646.887 145.189C638.151 145.189 630.153 143.038 622.893 138.737C615.634 134.315 609.851 128.221 605.544 120.454C601.361 112.568 599.269 103.665 599.269 93.7473ZM682.508 94.1057C682.508 87.2946 681.031 81.3797 678.078 76.3609C675.248 71.3422 671.495 67.5184 666.82 64.8896C662.144 62.2607 657.099 60.9463 651.685 60.9463C646.272 60.9463 641.227 62.2607 636.551 64.8896C631.875 67.3989 628.061 71.163 625.108 76.1817C622.278 81.0809 620.863 86.9361 620.863 93.7473C620.863 100.558 622.278 106.533 625.108 111.671C628.061 116.81 631.875 120.753 636.551 123.501C641.35 126.13 646.395 127.444 651.685 127.444C657.099 127.444 662.144 126.13 666.82 123.501C671.495 120.872 675.248 117.049 678.078 112.03C681.031 106.892 682.508 100.917 682.508 94.1057Z" fill="white"/>
<path d="M760.53 189.999L822.913 44.8146H801.134L771.419 120.096L742.811 44.8146H719.372L759.422 141.963L738.751 189.999H760.53Z" fill="white"/>
<path fill-rule="evenodd" clip-rule="evenodd" d="M960.635 67.3989C956.451 75.0465 954.36 83.8293 954.36 93.7473C954.36 103.665 956.451 112.568 960.635 120.454C964.941 128.221 970.724 134.315 977.984 138.737C985.243 143.038 993.241 145.189 1001.98 145.189C1009.85 145.189 1016.87 143.636 1023.02 140.529C1029.17 137.422 1034.03 133.539 1037.6 128.878V143.576H1058.82V44.8146H1037.6V59.1539C1034.03 54.6131 1029.23 50.8491 1023.2 47.8617C1017.3 44.7549 1010.34 43.2015 1002.35 43.2015C993.487 43.2015 985.367 45.3523 977.984 49.6541C970.724 53.8364 964.941 59.7513 960.635 67.3989ZM1033.17 76.3609C1036.12 81.3797 1037.6 87.2946 1037.6 94.1057C1037.6 100.917 1036.12 106.892 1033.17 112.03C1030.34 117.049 1026.59 120.872 1021.91 123.501C1017.23 126.13 1012.19 127.444 1006.78 127.444C1001.49 127.444 996.44 126.13 991.642 123.501C986.966 120.753 983.152 116.81 980.199 111.671C977.369 106.533 975.954 100.558 975.954 93.7473C975.954 86.9361 977.369 81.0809 980.199 76.1817C983.152 71.163 986.966 67.3989 991.642 64.8896C996.317 62.2607 1001.36 60.9463 1006.78 60.9463C1012.19 60.9463 1017.23 62.2607 1021.91 64.8896C1026.59 67.5184 1030.34 71.3422 1033.17 76.3609Z" fill="white"/>
<path d="M1137.77 43.2015C1145.77 43.2015 1152.9 44.8146 1159.18 48.041C1165.58 51.2673 1170.56 56.047 1174.13 62.3802C1177.7 68.7133 1179.48 76.3609 1179.48 85.323V143.576H1158.62V88.37C1158.62 79.5275 1156.35 72.7761 1151.79 68.1159C1147.24 63.3361 1141.03 60.9463 1133.15 60.9463C1125.28 60.9463 1119 63.3361 1114.33 68.1159C1109.78 72.7761 1107.5 79.5275 1107.5 88.37V143.576H1086.46V44.8146H1107.5V56.1068C1110.94 52.044 1115.31 48.8774 1120.6 46.607C1126.02 44.3367 1131.74 43.2015 1137.77 43.2015Z" fill="white"/>
<path d="M0.209803 2.64263C-0.384689 1.61755 0.354938 0.333597 1.53994 0.333597H22.4561C23.0044 0.333597 23.5112 0.625543 23.7862 1.09983L95.1201 124.102L95.1291 124.117C102.93 137.421 123.145 137.384 130.893 124.052L147.242 95.9194C147.517 95.4458 148.024 95.1544 148.572 95.1544H169.499C170.684 95.1544 171.424 96.4395 170.828 97.4646L149.196 134.688C133.296 162.048 92.8315 162.103 76.8498 134.793L76.8289 134.757L0.209803 2.64263Z" fill="#FFA800"/>
<path d="M0.209803 2.64263C-0.384689 1.61755 0.354938 0.333597 1.53994 0.333597H22.4561C23.0044 0.333597 23.5112 0.625543 23.7862 1.09983L95.1201 124.102L95.1291 124.117C102.93 137.421 123.145 137.384 130.893 124.052L147.242 95.9194C147.517 95.4458 148.024 95.1544 148.572 95.1544H169.499C170.684 95.1544 171.424 96.4395 170.828 97.4646L149.196 134.688C133.296 162.048 92.8315 162.103 76.8498 134.793L76.8289 134.757L0.209803 2.64263Z" fill="url(#paint0_linear_1304_2999)"/>
<path d="M0.209803 2.64263C-0.384689 1.61755 0.354938 0.333597 1.53994 0.333597H22.4561C23.0044 0.333597 23.5112 0.625543 23.7862 1.09983L95.1201 124.102L95.1291 124.117C102.93 137.421 123.145 137.384 130.893 124.052L147.242 95.9194C147.517 95.4458 148.024 95.1544 148.572 95.1544H169.499C170.684 95.1544 171.424 96.4395 170.828 97.4646L149.196 134.688C133.296 162.048 92.8315 162.103 76.8498 134.793L76.8289 134.757L0.209803 2.64263Z" fill="url(#paint1_linear_1304_2999)"/>
<path d="M0.209803 2.64263C-0.384689 1.61755 0.354938 0.333597 1.53994 0.333597H22.4561C23.0044 0.333597 23.5112 0.625543 23.7862 1.09983L95.1201 124.102L95.1291 124.117C102.93 137.421 123.145 137.384 130.893 124.052L147.242 95.9194C147.517 95.4458 148.024 95.1544 148.572 95.1544H169.499C170.684 95.1544 171.424 96.4395 170.828 97.4646L149.196 134.688C133.296 162.048 92.8315 162.103 76.8498 134.793L76.8289 134.757L0.209803 2.64263Z" fill="url(#paint2_linear_1304_2999)"/>
<path d="M0.209803 2.64263C-0.384689 1.61755 0.354938 0.333597 1.53994 0.333597H22.4561C23.0044 0.333597 23.5112 0.625543 23.7862 1.09983L95.1201 124.102L95.1291 124.117C102.93 137.421 123.145 137.384 130.893 124.052L147.242 95.9194C147.517 95.4458 148.024 95.1544 148.572 95.1544H169.499C170.684 95.1544 171.424 96.4395 170.828 97.4646L149.196 134.688C133.296 162.048 92.8315 162.103 76.8498 134.793L76.8289 134.757L0.209803 2.64263Z" fill="url(#paint3_linear_1304_2999)"/>
<path d="M0.209803 2.64263C-0.384689 1.61755 0.354938 0.333597 1.53994 0.333597H22.4561C23.0044 0.333597 23.5112 0.625543 23.7862 1.09983L95.1201 124.102L95.1291 124.117C102.93 137.421 123.145 137.384 130.893 124.052L147.242 95.9194C147.517 95.4458 148.024 95.1544 148.572 95.1544H169.499C170.684 95.1544 171.424 96.4395 170.828 97.4646L149.196 134.688C133.296 162.048 92.8315 162.103 76.8498 134.793L76.8289 134.757L0.209803 2.64263Z" fill="url(#paint4_linear_1304_2999)"/>
<path d="M126.94 61.839C127.494 61.839 128.006 61.5407 128.279 61.0583L144.73 31.9677C152.407 18.3928 172.178 18.3495 179.92 31.876L236.939 134.298L236.989 134.387C252.848 162.236 293.248 162.177 309.023 134.281L346.677 67.698C352.719 57.0142 357.243 38.7907 347.026 20.8508C331.168 -6.99736 290.768 -6.93854 274.992 20.9573L253.17 59.5444C252.59 60.5695 253.331 61.839 254.509 61.839H275.295C275.849 61.839 276.361 61.5407 276.633 61.0583L293.418 31.3778C301.103 17.7894 320.905 17.7595 328.631 31.3263C334.042 40.828 331.894 50.835 328.251 57.2774L290.597 123.86C282.92 137.435 263.149 137.479 255.407 123.951L198.388 21.53L198.338 21.4407C182.479 -6.40745 142.079 -6.34863 126.304 21.5472L104.815 59.5444C104.236 60.5695 104.976 61.839 106.154 61.839H126.94Z" fill="#FFA800"/>
<path d="M126.94 61.839C127.494 61.839 128.006 61.5407 128.279 61.0583L144.73 31.9677C152.407 18.3928 172.178 18.3495 179.92 31.876L236.939 134.298L236.989 134.387C252.848 162.236 293.248 162.177 309.023 134.281L346.677 67.698C352.719 57.0142 357.243 38.7907 347.026 20.8508C331.168 -6.99736 290.768 -6.93854 274.992 20.9573L253.17 59.5444C252.59 60.5695 253.331 61.839 254.509 61.839H275.295C275.849 61.839 276.361 61.5407 276.633 61.0583L293.418 31.3778C301.103 17.7894 320.905 17.7595 328.631 31.3263C334.042 40.828 331.894 50.835 328.251 57.2774L290.597 123.86C282.92 137.435 263.149 137.479 255.407 123.951L198.388 21.53L198.338 21.4407C182.479 -6.40745 142.079 -6.34863 126.304 21.5472L104.815 59.5444C104.236 60.5695 104.976 61.839 106.154 61.839H126.94Z" fill="url(#paint5_linear_1304_2999)"/>
<path d="M126.94 61.839C127.494 61.839 128.006 61.5407 128.279 61.0583L144.73 31.9677C152.407 18.3928 172.178 18.3495 179.92 31.876L236.939 134.298L236.989 134.387C252.848 162.236 293.248 162.177 309.023 134.281L346.677 67.698C352.719 57.0142 357.243 38.7907 347.026 20.8508C331.168 -6.99736 290.768 -6.93854 274.992 20.9573L253.17 59.5444C252.59 60.5695 253.331 61.839 254.509 61.839H275.295C275.849 61.839 276.361 61.5407 276.633 61.0583L293.418 31.3778C301.103 17.7894 320.905 17.7595 328.631 31.3263C334.042 40.828 331.894 50.835 328.251 57.2774L290.597 123.86C282.92 137.435 263.149 137.479 255.407 123.951L198.388 21.53L198.338 21.4407C182.479 -6.40745 142.079 -6.34863 126.304 21.5472L104.815 59.5444C104.236 60.5695 104.976 61.839 106.154 61.839H126.94Z" fill="url(#paint6_linear_1304_2999)"/>
<path d="M126.94 61.839C127.494 61.839 128.006 61.5407 128.279 61.0583L144.73 31.9677C152.407 18.3928 172.178 18.3495 179.92 31.876L236.939 134.298L236.989 134.387C252.848 162.236 293.248 162.177 309.023 134.281L346.677 67.698C352.719 57.0142 357.243 38.7907 347.026 20.8508C331.168 -6.99736 290.768 -6.93854 274.992 20.9573L253.17 59.5444C252.59 60.5695 253.331 61.839 254.509 61.839H275.295C275.849 61.839 276.361 61.5407 276.633 61.0583L293.418 31.3778C301.103 17.7894 320.905 17.7595 328.631 31.3263C334.042 40.828 331.894 50.835 328.251 57.2774L290.597 123.86C282.92 137.435 263.149 137.479 255.407 123.951L198.388 21.53L198.338 21.4407C182.479 -6.40745 142.079 -6.34863 126.304 21.5472L104.815 59.5444C104.236 60.5695 104.976 61.839 106.154 61.839H126.94Z" fill="url(#paint7_linear_1304_2999)"/>
<path d="M126.94 61.839C127.494 61.839 128.006 61.5407 128.279 61.0583L144.73 31.9677C152.407 18.3928 172.178 18.3495 179.92 31.876L236.939 134.298L236.989 134.387C252.848 162.236 293.248 162.177 309.023 134.281L346.677 67.698C352.719 57.0142 357.243 38.7907 347.026 20.8508C331.168 -6.99736 290.768 -6.93854 274.992 20.9573L253.17 59.5444C252.59 60.5695 253.331 61.839 254.509 61.839H275.295C275.849 61.839 276.361 61.5407 276.633 61.0583L293.418 31.3778C301.103 17.7894 320.905 17.7595 328.631 31.3263C334.042 40.828 331.894 50.835 328.251 57.2774L290.597 123.86C282.92 137.435 263.149 137.479 255.407 123.951L198.388 21.53L198.338 21.4407C182.479 -6.40745 142.079 -6.34863 126.304 21.5472L104.815 59.5444C104.236 60.5695 104.976 61.839 106.154 61.839H126.94Z" fill="url(#paint8_linear_1304_2999)"/>
<path d="M126.94 61.839C127.494 61.839 128.006 61.5407 128.279 61.0583L144.73 31.9677C152.407 18.3928 172.178 18.3495 179.92 31.876L236.939 134.298L236.989 134.387C252.848 162.236 293.248 162.177 309.023 134.281L346.677 67.698C352.719 57.0142 357.243 38.7907 347.026 20.8508C331.168 -6.99736 290.768 -6.93854 274.992 20.9573L253.17 59.5444C252.59 60.5695 253.331 61.839 254.509 61.839H275.295C275.849 61.839 276.361 61.5407 276.633 61.0583L293.418 31.3778C301.103 17.7894 320.905 17.7595 328.631 31.3263C334.042 40.828 331.894 50.835 328.251 57.2774L290.597 123.86C282.92 137.435 263.149 137.479 255.407 123.951L198.388 21.53L198.338 21.4407C182.479 -6.40745 142.079 -6.34863 126.304 21.5472L104.815 59.5444C104.236 60.5695 104.976 61.839 106.154 61.839H126.94Z" fill="url(#paint9_linear_1304_2999)"/>
<defs>
<linearGradient id="paint0_linear_1304_2999" x1="230.396" y1="144.656" x2="8.5081" y2="-76.0055" gradientUnits="userSpaceOnUse">
<stop stop-color="#FFC75B"/>
<stop offset="1" stop-color="#FFE8AB"/>
</linearGradient>
<linearGradient id="paint1_linear_1304_2999" x1="61.2218" y1="40.6783" x2="280.657" y2="95.6201" gradientUnits="userSpaceOnUse">
<stop stop-color="#FFDA7B"/>
<stop offset="1" stop-color="#FFAC01"/>
</linearGradient>
<linearGradient id="paint2_linear_1304_2999" x1="384.859" y1="19.6143" x2="73.4808" y2="19.6143" gradientUnits="userSpaceOnUse">
<stop stop-color="#FF9900"/>
<stop offset="1" stop-color="#FFB800"/>
</linearGradient>
<linearGradient id="paint3_linear_1304_2999" x1="79.6103" y1="66.1984" x2="328.467" y2="126.267" gradientUnits="userSpaceOnUse">
<stop stop-color="#FFBA07"/>
<stop offset="1" stop-color="#FF5C01"/>
</linearGradient>
<linearGradient id="paint4_linear_1304_2999" x1="330.919" y1="88.2646" x2="72.2549" y2="3.41552e-05" gradientUnits="userSpaceOnUse">
<stop stop-color="#FF4D01"/>
<stop offset="1" stop-color="#FF8A01"/>
</linearGradient>
<linearGradient id="paint5_linear_1304_2999" x1="230.396" y1="144.656" x2="8.5081" y2="-76.0055" gradientUnits="userSpaceOnUse">
<stop stop-color="#FFC75B"/>
<stop offset="1" stop-color="#FFE8AB"/>
</linearGradient>
<linearGradient id="paint6_linear_1304_2999" x1="61.2218" y1="40.6783" x2="280.657" y2="95.6201" gradientUnits="userSpaceOnUse">
<stop stop-color="#FFDA7B"/>
<stop offset="1" stop-color="#FFAC01"/>
</linearGradient>
<linearGradient id="paint7_linear_1304_2999" x1="384.859" y1="19.6143" x2="73.4808" y2="19.6143" gradientUnits="userSpaceOnUse">
<stop stop-color="#FF9900"/>
<stop offset="1" stop-color="#FFB800"/>
</linearGradient>
<linearGradient id="paint8_linear_1304_2999" x1="79.6103" y1="66.1984" x2="328.467" y2="126.267" gradientUnits="userSpaceOnUse">
<stop stop-color="#FFBA07"/>
<stop offset="1" stop-color="#FF5C01"/>
</linearGradient>
<linearGradient id="paint9_linear_1304_2999" x1="330.919" y1="88.2646" x2="72.2549" y2="3.41552e-05" gradientUnits="userSpaceOnUse">
<stop stop-color="#FF4D01"/>
<stop offset="1" stop-color="#FF8A01"/>
</linearGradient>
</defs>
</svg>
